<svg xmlns="http://www.w3.org/2000/svg" viewBox="0 0 400 300" data-imageid="startup-outline-48255" imageName="Startup" class="illustrations_image" style="width: 188px;"><g id="_288_startup_outline" data-name="#288_startup_outline"><path d="M92,214.93H308a0,0,0,0,1,0,0v6.26a9.62,9.62,0,0,1-9.62,9.62H101.64A9.62,9.62,0,0,1,92,221.19v-6.26A0,0,0,0,1,92,214.93Z" fill="#ff8906" class="target-color"/><path d="M298.36,231.81H101.64A10.62,10.62,0,0,1,91,221.19v-6.26a1,1,0,0,1,1-1H308a1,1,0,0,1,1,1v6.26A10.62,10.62,0,0,1,298.36,231.81ZM93,215.93v5.26a8.63,8.63,0,0,0,8.61,8.62H298.36a8.63,8.63,0,0,0,8.61-8.62v-5.26Z" fill="#093f68"/><path d="M115.12,104.88H284.88a8.54,8.54,0,0,1,8.54,8.54V214.93a0,0,0,0,1,0,0H106.58a0,0,0,0,1,0,0V113.42A8.54,8.54,0,0,1,115.12,104.88Z" fill="#ff8906" class="target-color"/><path d="M293.42,215.93H106.58a1,1,0,0,1-1-1V113.42a9.55,9.55,0,0,1,9.54-9.54H284.88a9.55,9.55,0,0,1,9.54,9.54V214.93A1,1,0,0,1,293.42,215.93Zm-185.84-2H292.42V113.42a7.55,7.55,0,0,0-7.54-7.54H115.12a7.55,7.55,0,0,0-7.54,7.54Z" fill="#093f68"/><rect x="114.49" y="114.61" width="171.01" height="91.26" rx="2.58" fill="#fff"/><path d="M282.93,206.87H117.07a3.59,3.59,0,0,1-3.58-3.58v-86.1a3.58,3.58,0,0,1,3.58-3.58H282.93a3.57,3.57,0,0,1,3.57,3.58v86.1A3.58,3.58,0,0,1,282.93,206.87ZM117.07,115.61a1.58,1.58,0,0,0-1.58,1.58v86.1a1.58,1.58,0,0,0,1.58,1.58H282.93a1.57,1.57,0,0,0,1.57-1.58v-86.1a1.57,1.57,0,0,0-1.57-1.58Z" fill="#093f68"/><path d="M270.77,211.45H129.23a1,1,0,0,1-1-1V138.64a1,1,0,0,1,1-1H270.77a1,1,0,0,1,1,1v71.81A1,1,0,0,1,270.77,211.45Zm-140.54-2H269.77V139.64H130.23Z" fill="#dfeaef"/><path d="M190.67,214.93h18.66a0,0,0,0,1,0,0V216a3.57,3.57,0,0,1-3.57,3.57H194.25a3.57,3.57,0,0,1-3.57-3.57v-1.07A0,0,0,0,1,190.67,214.93Z" fill="#ff8906" class="target-color"/><path d="M205.75,220.58h-11.5a4.58,4.58,0,0,1-4.58-4.57v-1.08a1,1,0,0,1,1-1h18.66a1,1,0,0,1,1,1V216A4.58,4.58,0,0,1,205.75,220.58Zm-14.08-4.65V216a2.58,2.58,0,0,0,2.58,2.57h11.5a2.58,2.58,0,0,0,2.58-2.57v-.08Z" fill="#093f68"/><path d="M285.5,130.92h-171a1,1,0,1,1,0-2h171a1,1,0,0,1,0,2Z" fill="#093f68"/><polygon points="226.38 214.94 174.82 214.94 188.79 179.64 212.41 179.64 226.38 214.94" fill="#fff"/><path d="M226.38,215.93H174.82a1,1,0,0,1-.82-.43,1,1,0,0,1-.11-.93l14-35.3a1,1,0,0,1,.93-.63h23.62a1,1,0,0,1,.93.63l14,35.3a1,1,0,0,1-.1.93A1,1,0,0,1,226.38,215.93Zm-50.09-2H224.9l-13.17-33.29H189.47Z" fill="#093f68"/><path d="M217.87,214.93h82.72c-4.32-24.75-18.37-42.25-36.38-42.67s-21,27.75-21,27.75-5.58-9.14-15.87-5.19C215.06,199.51,217.87,214.93,217.87,214.93Z" fill="#fff"/><path d="M300.59,215.93H217.87a1,1,0,0,1-1-.82c0-.16-2.82-16.3,10.06-21.23,7.8-3,13.13,1.09,15.57,3.71a55.11,55.11,0,0,1,3.49-12c4.11-9.56,10.41-14.46,18.22-14.33,18.14.44,32.8,17.51,37.34,43.51a1,1,0,0,1-1,1.17Zm-81.85-2h80.65c-4.59-24.35-18.33-40.28-35.21-40.68h-.37c-16.57,0-19.62,26.59-19.65,26.86a1,1,0,0,1-.77.87,1,1,0,0,1-1.07-.45c-.21-.34-5.3-8.36-14.66-4.78C217.77,199.54,218.36,210.77,218.74,213.93Z" fill="#093f68"/><path d="M196.57,214.93s-5.9-11.14-16.71-7.67c0,0-6-14.48-16.52-14.52a26.37,26.37,0,0,0-14.92,4.87c-10.45-23.9-26.5-18.75-35.82-11.33-17.31,13.78-12.75,27.37-13.11,28.65Z" fill="#fff"/><path d="M196.57,215.93H99.49a1,1,0,0,1-.8-.39,1,1,0,0,1-.16-.88s-.06-.47-.1-.85c-.43-4-1.76-16.12,13.54-28.31,3.92-3.12,11.77-8,20.35-5.91,6.67,1.66,12.22,7.21,16.52,16.51a27.36,27.36,0,0,1,14.41-4.36h.1c9.67,0,15.58,11.14,17.07,14.32,10.93-2.85,17,8.29,17,8.41a1,1,0,0,1,0,1A1,1,0,0,1,196.57,215.93Zm-96.11-2h94.29c-1.95-2.75-6.93-8.18-14.58-5.72a1,1,0,0,1-1.23-.57c-.06-.14-5.88-13.86-15.6-13.9h-.09A25.58,25.58,0,0,0,149,198.4a1,1,0,0,1-.86.18,1,1,0,0,1-.67-.57c-4.09-9.37-9.36-14.91-15.66-16.47-7.75-1.93-15,2.63-18.62,5.52-14.45,11.51-13.21,22.82-12.8,26.53C100.43,213.72,100.45,213.83,100.46,213.93Z" fill="#093f68"/><polygon points="155.66 159.76 182.43 143.44 182.43 174.1 155.66 174.1 155.66 159.76" fill="#ff8906" class="target-color"/><path d="M182.43,175.1H155.67a1,1,0,0,1-1-1V159.76a1,1,0,0,1,.47-.86l26.77-16.31a1,1,0,0,1,1,0,1,1,0,0,1,.51.87V174.1A1,1,0,0,1,182.43,175.1Zm-25.76-2h24.76V145.22l-24.76,15.1Z" fill="#093f68"/><polygon points="244.34 159.76 217.57 143.44 217.57 174.1 244.34 174.1 244.34 159.76" fill="#ff8906" class="target-color"/><path d="M244.33,175.1H217.57a1,1,0,0,1-1-1V143.44a1,1,0,0,1,.51-.87,1,1,0,0,1,1,0l26.77,16.31a1,1,0,0,1,.47.86V174.1A1,1,0,0,1,244.33,175.1Zm-25.76-2h24.76V160.32l-24.76-15.1Z" fill="#093f68"/><path d="M238,98.57a36.94,36.94,0,1,0-66.39,22.3,54.21,54.21,0,0,1,11,32.75h36.8a52.57,52.57,0,0,1,10.76-32.37A36.75,36.75,0,0,0,238,98.57Z" fill="#ffbc0e"/><path d="M219.5,154.62H182.7a1,1,0,0,1-1-1,53.51,53.51,0,0,0-10.85-32.14A37.94,37.94,0,1,1,239,98.57a37.58,37.58,0,0,1-8,23.3,51.74,51.74,0,0,0-10.55,31.75A1,1,0,0,1,219.5,154.62Zm-35.81-2h34.82a53.64,53.64,0,0,1,11-32A35.55,35.55,0,0,0,237,98.57a36.08,36.08,0,0,0-11.42-26.28,35.95,35.95,0,0,0-53.18,48A55.49,55.49,0,0,1,183.69,152.62Z" fill="#093f68"/><polygon points="217.57 182.43 183.62 182.43 187.6 174.1 213.59 174.1 217.57 182.43" fill="#093f68"/><path d="M217.57,183.43H183.62a1,1,0,0,1-.84-.46,1,1,0,0,1-.06-1l4-8.33a1,1,0,0,1,.91-.57h26a1,1,0,0,1,.91.57l4,8.33a1,1,0,0,1-.06,1A1,1,0,0,1,217.57,183.43Zm-32.36-2H216l-3-6.33H188.24Z" fill="#093f68"/><rect x="178.23" y="163.88" width="44.73" height="10.22" rx="4.28" fill="#ff8906" class="target-color"/><path d="M218.69,175.1H182.51a5.29,5.29,0,0,1-5.28-5.28v-1.66a5.29,5.29,0,0,1,5.28-5.28h36.18a5.29,5.29,0,0,1,5.28,5.28v1.66A5.29,5.29,0,0,1,218.69,175.1Zm-36.18-10.22a3.28,3.28,0,0,0-3.28,3.28v1.66a3.28,3.28,0,0,0,3.28,3.28h36.18a3.28,3.28,0,0,0,3.28-3.28v-1.66a3.28,3.28,0,0,0-3.28-3.28Z" fill="#093f68"/><rect x="178.23" y="153.66" width="44.73" height="10.22" rx="4.28" fill="#ff8906" class="target-color"/><path d="M218.69,164.88H182.51a5.29,5.29,0,0,1-5.28-5.28v-1.66a5.29,5.29,0,0,1,5.28-5.28h36.18a5.29,5.29,0,0,1,5.28,5.28v1.66A5.29,5.29,0,0,1,218.69,164.88Zm-36.18-10.22a3.28,3.28,0,0,0-3.28,3.28v1.66a3.28,3.28,0,0,0,3.28,3.28h36.18A3.28,3.28,0,0,0,222,159.6v-1.66a3.28,3.28,0,0,0-3.28-3.28Z" fill="#093f68"/><rect x="178.23" y="143.44" width="44.73" height="10.22" rx="4.28" fill="#ff8906" class="target-color"/><path d="M218.69,154.66H182.51a5.29,5.29,0,0,1-5.28-5.28v-1.66a5.29,5.29,0,0,1,5.28-5.28h36.18a5.29,5.29,0,0,1,5.28,5.28v1.66A5.29,5.29,0,0,1,218.69,154.66Zm-36.18-10.22a3.28,3.28,0,0,0-3.28,3.28v1.66a3.28,3.28,0,0,0,3.28,3.28h36.18a3.28,3.28,0,0,0,3.28-3.28v-1.66a3.28,3.28,0,0,0-3.28-3.28Z" fill="#093f68"/><path d="M191.3,141.25a1,1,0,0,1-1-.81l-8.88-47a1,1,0,0,1,1.65-.94l11.26,10L201,91.21a1,1,0,0,1,1.75.05l5.9,11.49,9.77-10.11a1,1,0,0,1,1.71.85l-7.6,46.92a1,1,0,0,1-2-.32l7.09-43.77-8.53,8.83a1,1,0,0,1-1.61-.24l-5.7-11.12-6.32,10.72a1,1,0,0,1-.71.48,1,1,0,0,1-.82-.24l-10-8.84,8.33,44.16a1,1,0,0,1-.8,1.16A.55.55,0,0,1,191.3,141.25Z" fill="#fff"/><path d="M212.42,200.51a1,1,0,0,1-.93-.64L206.15,186a1,1,0,1,1,1.86-.72l5.35,13.84a1,1,0,0,1-.57,1.29A1,1,0,0,1,212.42,200.51Z" fill="#093f68"/><path d="M188.59,199.34a.89.89,0,0,1-.32-.05,1,1,0,0,1-.63-1.27l3.77-11.11a1,1,0,1,1,1.89.64l-3.76,11.11A1,1,0,0,1,188.59,199.34Z" fill="#093f68"/><path d="M203.23,211.45a1,1,0,0,1-1-.91l-2.14-24.78a1,1,0,0,1,.91-1.08,1,1,0,0,1,1.08.91l2.14,24.77a1,1,0,0,1-.91,1.09Z" fill="#093f68"/><path d="M139,204.92a1,1,0,0,1-.88-1.47c.14-.27,3.51-6.51,9-6.92,3.57-.25,7.1,1.93,10.48,6.52a1,1,0,0,1-.21,1.4,1,1,0,0,1-1.39-.21c-3-4-5.89-5.92-8.72-5.72-4.45.33-7.42,5.81-7.45,5.87A1,1,0,0,1,139,204.92Z" fill="#093f68"/><path d="M238.05,208.07l-.17,0a1,1,0,0,1-.82-1.14c0-.1,1.8-9.85,14.06-8.39a1,1,0,1,1-.24,2c-10.34-1.23-11.79,6.42-11.85,6.74A1,1,0,0,1,238.05,208.07Z" fill="#093f68"/><circle cx="124.68" cy="122.48" r="3.22" fill="#f56132"/><path d="M124.68,126.7a4.22,4.22,0,1,1,4.22-4.22A4.22,4.22,0,0,1,124.68,126.7Zm0-6.44a2.22,2.22,0,1,0,2.22,2.22A2.21,2.21,0,0,0,124.68,120.26Z" fill="#093f68"/><circle cx="134.22" cy="122.48" r="3.22" fill="#ffbc0e"/><path d="M134.22,126.7a4.22,4.22,0,1,1,4.23-4.22A4.23,4.23,0,0,1,134.22,126.7Zm0-6.44a2.22,2.22,0,1,0,2.23,2.22A2.22,2.22,0,0,0,134.22,120.26Z" fill="#093f68"/><circle cx="143.77" cy="122.48" r="3.22" fill="#70cc40"/><path d="M143.77,126.7a4.22,4.22,0,1,1,4.22-4.22A4.22,4.22,0,0,1,143.77,126.7Zm0-6.44a2.22,2.22,0,1,0,2.22,2.22A2.22,2.22,0,0,0,143.77,120.26Z" fill="#093f68"/></g></svg>